<svg xmlns="http://www.w3.org/2000/svg" width="26.47" height="25.281" viewBox="0 0 26.47 25.281">
  <path id="search_" data-name="search " class="cls-1" d="M1773.23,46.6l-7.97-7.614a9.11,9.11,0,0,0,1.84-5.486,9.935,9.935,0,0,0-19.85,0,9.707,9.707,0,0,0,9.92,9.482,10.212,10.212,0,0,0,5.75-1.756l7.97,7.614a1.692,1.692,0,0,0,1.17.465,1.674,1.674,0,0,0,1.17-.465A1.53,1.53,0,0,0,1773.23,46.6Zm-10.66-9.447-0.66.874-0.91.624a6.79,6.79,0,0,1-3.83,1.17,6.328,6.328,0,1,1,6.62-6.321A6.094,6.094,0,0,1,1762.57,37.154Z" transform="translate(-1747.25 -24.031)"/>
</svg>
